<?xml version="1.0" encoding="UTF-8"?><svg id="Ebene_1" xmlns="http://www.w3.org/2000/svg" width="722.043" height="193.277" viewBox="0 0 722.043 193.277"><defs><style>.cls-1{fill:#ff7d45;}.cls-1,.cls-2,.cls-3{stroke-width:0px;}.cls-2{fill:#fff;}.cls-3{fill:#2d5a6b;}</style></defs><path class="cls-2" d="M199.836,66.219h9.648v30.306h.227c3.179-6.47,10.557-9.309,18.729-9.309,18.047,0,27.014,14.302,27.014,30.873,0,16.685-8.853,30.534-26.787,30.534-5.902,0-14.755-2.271-18.956-9.195h-.227v7.832h-9.648v-81.042ZM227.077,95.729c-13.053,0-17.934,11.237-17.934,22.134,0,11.464,5.222,22.248,18.502,22.248,13.167,0,17.593-11.237,17.593-22.701,0-11.011-5.676-21.68-18.161-21.68Z"/><path class="cls-2" d="M268.837,66.219h10.783v81.042h-10.783v-81.042Z"/><path class="cls-2" d="M316.164,75.299h-27.015v-9.08h64.811v9.08h-27.014v71.962h-10.783v-71.962Z"/><path class="cls-2" d="M362.921,66.219h27.808c24.971,0,38.932,12.598,38.932,38.591,0,27.129-11.918,42.451-38.932,42.451h-27.808v-81.042ZM373.703,138.18h17.934c7.378,0,27.241-2.043,27.241-31.895,0-19.295-7.151-30.986-27.015-30.986h-18.161v62.881Z"/><path class="cls-2" d="M491.284,128.647c-2.611,13.052-11.805,19.977-25.084,19.977-18.728,0-27.582-13.053-28.149-30.873,0-17.708,11.577-30.534,27.582-30.534,20.772,0,27.128,19.41,26.56,33.597h-43.926c-.341,10.217,5.448,19.297,18.274,19.297,8.059,0,13.507-3.746,15.209-11.464h9.534ZM481.977,112.302c-.568-9.195-7.264-16.573-16.913-16.573-9.988,0-16.231,7.493-16.798,16.573h33.711Z"/><path class="cls-2" d="M528.619,147.261h-10.329l-21.793-58.682h10.783l16.458,48.92h.227l16.004-48.92h10.102l-21.452,58.682Z"/><path class="cls-2" d="M560.508,66.219h10.783v40.407l41.089-40.407h13.961l-34.166,32.689,35.527,48.353h-13.621l-29.284-40.976-13.507,12.6v28.376h-10.783v-81.042Z"/><path class="cls-2" d="M644.833,78.023h-9.649v-11.805h9.649v11.805ZM635.185,88.579h9.649v58.682h-9.649v-58.682Z"/><path class="cls-2" d="M673.204,88.579h11.691v8.513h-11.691v36.434c0,4.54,1.249,5.222,7.264,5.222h4.427v8.513h-7.378c-9.988,0-13.961-2.043-13.961-12.827v-37.342h-9.988v-8.513h9.988v-17.593h9.648v17.593Z"/><polygon class="cls-3" points="56.181 103.364 33.863 91.224 33.787 132.246 56.105 144.386 56.181 103.364"/><path class="cls-3" d="M35.894,90.169l21.414,11.648,24.341-3.42.011-5.888-24.474,3.44c-.045.007-.088.009-.132.009-.141,0-.275-.041-.402-.101-.016-.008-.035-.004-.051-.013l-12.542-6.822-8.165,1.148Z"/><path class="cls-3" d="M81.71,116.821c0-.034.022-.062.025-.096.003-.025-.014-.047-.01-.073.008-.042.045-.068.058-.108.037-.115.088-.215.165-.308.043-.053.082-.096.136-.138.034-.027.052-.069.09-.092.072-.043.156-.044.234-.066.043-.012.072-.051.117-.057l8.464-1.189-8.864-4.823c-.306-.165-.496-.485-.496-.834l.016-8.723-23.568,3.312-.076,41.264,23.663-3.325.046-24.743Z"/><polygon class="cls-3" points="56.109 93.414 56.181 54.312 54.574 51.524 33.866 40.259 33.791 81.276 56.109 93.414"/><path class="cls-3" d="M52.761,48.378l-.744-1.292c-.015-.026-.004-.058-.017-.085-.047-.101-.098-.202-.106-.316-.003-.04.018-.075.02-.114.003-.061.015-.111.029-.17.031-.131.087-.243.169-.35.023-.03.021-.073.048-.101.014-.015.037-.013.053-.027.02-.019.028-.047.051-.064l14.39-10.977-30.755,4.321,16.863,9.174Z"/><path class="cls-3" d="M81.671,87.114l-9.355-5.089c-.154-.082-.281-.207-.369-.359l-13.874-24.071-.067,36.324,23.659-3.325.006-3.479Z"/><polygon class="cls-1" points="73.457 80.485 81.675 84.956 81.703 69.754 76.363 60.491 63.201 53.331 55.34 49.055 73.457 80.485"/><polygon class="cls-1" points="54.578 46.48 76.965 58.658 109.995 33.463 87.608 21.284 54.578 46.48"/><path class="cls-1" d="M78.29,60.033l3.42,5.933v-.108c0-.034.022-.062.025-.096.003-.025-.014-.047-.01-.073.008-.042.045-.068.058-.108.037-.115.088-.215.165-.308.043-.053.082-.096.136-.138.034-.027.052-.069.09-.092.073-.043.157-.045.236-.067.042-.012.071-.05.115-.056l39.999-5.622c.201-.033.407.009.585.105l3.734,2.031-15.394-26.696-33.161,25.294Z"/><polygon class="cls-3" points="105.923 130.558 83.604 118.418 83.529 159.44 105.847 171.58 105.923 130.558"/><path class="cls-3" d="M106.925,123.151c-.045.007-.088.009-.132.009-.141,0-.275-.041-.402-.101-.016-.008-.035-.004-.051-.013l-12.551-6.829-8.153,1.146,21.414,11.648,36.844-5.178-8.587-4.671-28.383,3.989Z"/><polygon class="cls-3" points="107.82 130.82 107.744 172.083 145.845 166.728 145.921 125.464 107.82 130.82"/><polygon class="cls-3" points="105.847 120.617 105.923 79.595 83.604 67.455 83.529 108.477 105.847 120.617"/><polygon class="cls-3" points="122.48 61.221 85.636 66.4 107.051 78.048 143.895 72.87 122.48 61.221"/><polygon class="cls-3" points="107.82 79.856 107.744 121.12 145.845 115.765 145.921 74.501 107.82 79.856"/></svg>