<?xml version="1.0" encoding="UTF-8"?>
<!-- https://boxy-svg.com/app -->
<svg id="Ebene_1" xmlns="http://www.w3.org/2000/svg" width="722.043" height="493.277" viewBox="0 0 722.043 193.277">
  <defs>
    <style>
      .cls-1{fill:#e40b30;}.cls-1,.cls-2,.cls-3,.cls-4{stroke-width:0px;}.cls-2{fill:#fff;}.cls-3{fill:#b1cfe5;}.cls-4{fill:#0061a8;}
    </style>
  </defs>
  <!-- Original -->
  <g transform="translate(0,0)">
    <polygon fill="#b1cfe5" points="41.379 68.675 25.76 60.179 25.707 88.887 41.326 97.383 41.379 68.675"/>
    <path fill="#b1cfe5" d="M27.182,59.441l14.986,8.152,17.034-2.394.008-4.121-17.127,2.407c-.031.005-.062.006-.093.006-.099,0-.193-.029-.281-.071-.011-.005-.025-.003-.036-.009l-8.777-4.774-5.714.803Z"/>
    <path fill="#b1cfe5" d="M59.244,78.093c0-.024.015-.043.018-.067.002-.018-.01-.033-.007-.051.006-.03.032-.048.041-.076.026-.081.062-.151.116-.216.03-.037.058-.067.095-.097.024-.019.036-.048.063-.064.051-.03.109-.031.164-.046.03-.009.05-.036.082-.04l5.923-.832-6.203-3.375c-.214-.115-.347-.34-.347-.584l.011-6.105-16.494,2.318-.053,28.877,16.56-2.327.032-17.316Z"/>
    <polygon fill="#b1cfe5" points="41.328 61.712 41.379 34.347 40.254 32.396 25.762 24.513 25.71 53.217 41.328 61.712"/>
    <path fill="#b1cfe5" d="M38.985,30.195l-.521-.904c-.011-.018-.003-.04-.012-.059-.033-.071-.068-.141-.075-.221-.002-.028.013-.052.014-.08.002-.042.011-.078.021-.119.022-.091.061-.17.118-.245.016-.021.015-.051.034-.07.01-.01.026-.009.037-.019.014-.013.02-.033.036-.045l10.07-7.682-21.523,3.024,11.801,6.42Z"/>
    <path fill="#b1cfe5" d="M59.217,57.303l-6.547-3.562c-.108-.058-.197-.145-.258-.251l-9.709-16.846-.047,25.42,16.557-2.327.004-2.434Z"/>
    <polygon fill="#7f1d1d" points="53.469 52.664 59.22 55.793 59.24 45.154 55.503 38.671 46.291 33.661 40.79 30.668 53.469 52.664"/>
    <polygon fill="#7f1d1d" points="40.257 28.867 55.924 37.389 79.039 19.757 63.372 11.234 40.257 28.867"/>
    <path fill="#7f1d1d" d="M56.851,38.351l2.393,4.152v-.076c0-.024.015-.043.018-.067.002-.018-.01-.033-.007-.051.006-.03.032-.048.041-.076.026-.081.062-.151.116-.216.03-.037.058-.067.095-.097.024-.019.036-.048.063-.064.051-.03.11-.031.165-.047.029-.009.049-.035.081-.039l27.992-3.934c.14-.023.285.006.41.074l2.613,1.421-10.773-18.682-23.207,17.701Z"/>
    <polygon fill="#b1cfe5" points="76.189 87.706 60.57 79.21 60.517 107.918 76.136 116.414 76.189 87.706"/>
    <path fill="#b1cfe5" d="M76.89,82.522c-.031.005-.062.006-.093.006-.099,0-.193-.029-.281-.071-.011-.005-.025-.003-.036-.009l-8.783-4.779-5.706.802,14.986,8.152,25.784-3.624-6.009-3.269-19.863,2.792Z"/>
    <polygon fill="#b1cfe5" points="77.517 87.889 77.463 116.766 104.127 113.018 104.181 84.141 77.517 87.889"/>
    <polygon fill="#b1cfe5" points="76.136 80.749 76.189 52.041 60.57 43.545 60.517 72.253 76.136 80.749"/>
    <polygon fill="#b1cfe5" points="87.776 39.183 61.992 42.807 76.978 50.958 102.762 47.334 87.776 39.183"/>
    <polygon fill="#b1cfe5" points="77.517 52.224 77.463 81.101 104.127 77.353 104.181 48.476 77.517 52.224"/>
  </g>

  <!-- Modern Dark variant -->
  <g transform="translate(128,0)">
    <polygon fill="#2a4365" points="41.379 68.675 25.76 60.179 25.707 88.887 41.326 97.383 41.379 68.675"/>
    <path fill="#2a4365" d="M27.182,59.441l14.986,8.152,17.034-2.394.008-4.121-17.127,2.407c-.031.005-.062.006-.093.006-.099,0-.193-.029-.281-.071-.011-.005-.025-.003-.036-.009l-8.777-4.774-5.714.803Z"/>
    <path fill="#2a4365" d="M59.244,78.093c0-.024.015-.043.018-.067.002-.018-.01-.033-.007-.051.006-.03.032-.048.041-.076.026-.081.062-.151.116-.216.03-.037.058-.067.095-.097.024-.019.036-.048.063-.064.051-.03.109-.031.164-.046.03-.009.05-.036.082-.04l5.923-.832-6.203-3.375c-.214-.115-.347-.34-.347-.584l.011-6.105-16.494,2.318-.053,28.877,16.56-2.327.032-17.316Z"/>
    <polygon fill="#2a4365" points="41.328 61.712 41.379 34.347 40.254 32.396 25.762 24.513 25.71 53.217 41.328 61.712"/>
    <path fill="#2a4365" d="M38.985,30.195l-.521-.904c-.011-.018-.003-.04-.012-.059-.033-.071-.068-.141-.075-.221-.002-.028.013-.052.014-.08.002-.042.011-.078.021-.119.022-.091.061-.17.118-.245.016-.021.015-.051.034-.07.01-.01.026-.009.037-.019.014-.013.02-.033.036-.045l10.07-7.682-21.523,3.024,11.801,6.42Z"/>
    <path fill="#2a4365" d="M59.217,57.303l-6.547-3.562c-.108-.058-.197-.145-.258-.251l-9.709-16.846-.047,25.42,16.557-2.327.004-2.434Z"/>
    <polygon fill="#7f1d1d" points="53.469 52.664 59.22 55.793 59.24 45.154 55.503 38.671 46.291 33.661 40.79 30.668 53.469 52.664"/>
    <polygon fill="#7f1d1d" points="40.257 28.867 55.924 37.389 79.039 19.757 63.372 11.234 40.257 28.867"/>
    <path fill="#7f1d1d" d="M56.851,38.351l2.393,4.152v-.076c0-.024.015-.043.018-.067.002-.018-.01-.033-.007-.051.006-.03.032-.048.041-.076.026-.081.062-.151.116-.216.03-.037.058-.067.095-.097.024-.019.036-.048.063-.064.051-.03.11-.031.165-.047.029-.009.049-.035.081-.039l27.992-3.934c.14-.023.285.006.41.074l2.613,1.421-10.773-18.682-23.207,17.701Z"/>
    <polygon fill="#2a4365" points="76.189 87.706 60.57 79.21 60.517 107.918 76.136 116.414 76.189 87.706"/>
    <path fill="#2a4365" d="M76.89,82.522c-.031.005-.062.006-.093.006-.099,0-.193-.029-.281-.071-.011-.005-.025-.003-.036-.009l-8.783-4.779-5.706.802,14.986,8.152,25.784-3.624-6.009-3.269-19.863,2.792Z"/>
    <polygon fill="#2a4365" points="77.517 87.889 77.463 116.766 104.127 113.018 104.181 84.141 77.517 87.889"/>
    <polygon fill="#2a4365" points="76.136 80.749 76.189 52.041 60.57 43.545 60.517 72.253 76.136 80.749"/>
    <polygon fill="#2a4365" points="87.776 39.183 61.992 42.807 76.978 50.958 102.762 47.334 87.776 39.183"/>
    <polygon fill="#2a4365" points="77.517 52.224 77.463 81.101 104.127 77.353 104.181 48.476 77.517 52.224"/>
  </g>

  <!-- Dotnet1 variant -->
  <g transform="translate(256,0)">
    <polygon fill="#4c1d95" points="41.379 68.675 25.76 60.179 25.707 88.887 41.326 97.383 41.379 68.675"/>
    <path fill="#4c1d95" d="M27.182,59.441l14.986,8.152,17.034-2.394.008-4.121-17.127,2.407c-.031.005-.062.006-.093.006-.099,0-.193-.029-.281-.071-.011-.005-.025-.003-.036-.009l-8.777-4.774-5.714.803Z"/>
    <path fill="#4c1d95" d="M59.244,78.093c0-.024.015-.043.018-.067.002-.018-.01-.033-.007-.051.006-.03.032-.048.041-.076.026-.081.062-.151.116-.216.03-.037.058-.067.095-.097.024-.019.036-.048.063-.064.051-.03.109-.031.164-.046.03-.009.05-.036.082-.04l5.923-.832-6.203-3.375c-.214-.115-.347-.34-.347-.584l.011-6.105-16.494,2.318-.053,28.877,16.56-2.327.032-17.316Z"/>
    <polygon fill="#4c1d95" points="41.328 61.712 41.379 34.347 40.254 32.396 25.762 24.513 25.71 53.217 41.328 61.712"/>
    <path fill="#4c1d95" d="M38.985,30.195l-.521-.904c-.011-.018-.003-.04-.012-.059-.033-.071-.068-.141-.075-.221-.002-.028.013-.052.014-.08.002-.042.011-.078.021-.119.022-.091.061-.17.118-.245.016-.021.015-.051.034-.07.01-.01.026-.009.037-.019.014-.013.02-.033.036-.045l10.07-7.682-21.523,3.024,11.801,6.42Z"/>
    <path fill="#4c1d95" d="M59.217,57.303l-6.547-3.562c-.108-.058-.197-.145-.258-.251l-9.709-16.846-.047,25.42,16.557-2.327.004-2.434Z"/>

    <polygon fill="#805ad5" points="53.469 52.664 59.22 55.793 59.24 45.154 55.503 38.671 46.291 33.661 40.79 30.668 53.469 52.664"/>
    <polygon fill="#805ad5" points="40.257 28.867 55.924 37.389 79.039 19.757 63.372 11.234 40.257 28.867"/>
    <path fill="#805ad5" d="M56.851,38.351l2.393,4.152v-.076c0-.024.015-.043.018-.067.002-.018-.01-.033-.007-.051.006-.03.032-.048.041-.076.026-.081.062-.151.116-.216.03-.037.058-.067.095-.097.024-.019.036-.048.063-.064.051-.03.11-.031.165-.047.029-.009.049-.035.081-.039l27.992-3.934c.14-.023.285.006.41.074l2.613,1.421-10.773-18.682-23.207,17.701Z"/>

    <polygon fill="#4c1d95" points="76.189 87.706 60.57 79.21 60.517 107.918 76.136 116.414 76.189 87.706"/>
    <path fill="#4c1d95" d="M76.89,82.522c-.031.005-.062.006-.093.006-.099,0-.193-.029-.281-.071-.011-.005-.025-.003-.036-.009l-8.783-4.779-5.706.802,14.986,8.152,25.784-3.624-6.009-3.269-19.863,2.792Z"/>
    <polygon fill="#4c1d95" points="77.517 87.889 77.463 116.766 104.127 113.018 104.181 84.141 77.517 87.889"/>
    <polygon fill="#4c1d95" points="76.136 80.749 76.189 52.041 60.57 43.545 60.517 72.253 76.136 80.749"/>
    <polygon fill="#4c1d95" points="87.776 39.183 61.992 42.807 76.978 50.958 102.762 47.334 87.776 39.183"/>
    <polygon fill="#4c1d95" points="77.517 52.224 77.463 81.101 104.127 77.353 104.181 48.476 77.517 52.224"/>
  </g>

  <!-- Cyberpunk Green variant -->
  <g transform="translate(384,0)">
    <polygon fill="#004d1a" points="41.379 68.675 25.76 60.179 25.707 88.887 41.326 97.383 41.379 68.675"/>
    <path fill="#004d1a" d="M27.182,59.441l14.986,8.152,17.034-2.394.008-4.121-17.127,2.407c-.031.005-.062.006-.093.006-.099,0-.193-.029-.281-.071-.011-.005-.025-.003-.036-.009l-8.777-4.774-5.714.803Z"/>
    <path fill="#004d1a" d="M59.244,78.093c0-.024.015-.043.018-.067.002-.018-.01-.033-.007-.051.006-.03.032-.048.041-.076.026-.081.062-.151.116-.216.03-.037.058-.067.095-.097.024-.019.036-.048.063-.064.051-.03.109-.031.164-.046.03-.009.05-.036.082-.04l5.923-.832-6.203-3.375c-.214-.115-.347-.34-.347-.584l.011-6.105-16.494,2.318-.053,28.877,16.56-2.327.032-17.316Z"/>
    <polygon fill="#004d1a" points="41.328 61.712 41.379 34.347 40.254 32.396 25.762 24.513 25.71 53.217 41.328 61.712"/>
    <path fill="#004d1a" d="M38.985,30.195l-.521-.904c-.011-.018-.003-.04-.012-.059-.033-.071-.068-.141-.075-.221-.002-.028.013-.052.014-.08.002-.042.011-.078.021-.119.022-.091.061-.17.118-.245.016-.021.015-.051.034-.07.01-.01.026-.009.037-.019.014-.013.02-.033.036-.045l10.07-7.682-21.523,3.024,11.801,6.42Z"/>
    <path fill="#004d1a" d="M59.217,57.303l-6.547-3.562c-.108-.058-.197-.145-.258-.251l-9.709-16.846-.047,25.42,16.557-2.327.004-2.434Z"/>

    <polygon fill="#00ff41" points="53.469 52.664 59.22 55.793 59.24 45.154 55.503 38.671 46.291 33.661 40.79 30.668 53.469 52.664"/>
    <polygon fill="#00ff41" points="40.257 28.867 55.924 37.389 79.039 19.757 63.372 11.234 40.257 28.867"/>
    <path fill="#00ff41" d="M56.851,38.351l2.393,4.152v-.076c0-.024.015-.043.018-.067.002-.018-.01-.033-.007-.051.006-.03.032-.048.041-.076.026-.081.062-.151.116-.216.03-.037.058-.067.095-.097.024-.019.036-.048.063-.064.051-.03.11-.031.165-.047.029-.009.049-.035.081-.039l27.992-3.934c.14-.023.285.006.41.074l2.613,1.421-10.773-18.682-23.207,17.701Z"/>

    <polygon fill="#004d1a" points="76.189 87.706 60.57 79.21 60.517 107.918 76.136 116.414 76.189 87.706"/>
    <path fill="#004d1a" d="M76.89,82.522c-.031.005-.062.006-.093.006-.099,0-.193-.029-.281-.071-.011-.005-.025-.003-.036-.009l-8.783-4.779-5.706.802,14.986,8.152,25.784-3.624-6.009-3.269-19.863,2.792Z"/>
    <polygon fill="#004d1a" points="77.517 87.889 77.463 116.766 104.127 113.018 104.181 84.141 77.517 87.889"/>
    <polygon fill="#004d1a" points="76.136 80.749 76.189 52.041 60.57 43.545 60.517 72.253 76.136 80.749"/>
    <polygon fill="#004d1a" points="87.776 39.183 61.992 42.807 76.978 50.958 102.762 47.334 87.776 39.183"/>
    <polygon fill="#004d1a" points="77.517 52.224 77.463 81.101 104.127 77.353 104.181 48.476 77.517 52.224"/>
  </g>

  <!-- Iced blue variant -->
  <g transform="translate(0,120)">
    <polygon fill="#7dd3fc" points="41.379 68.675 25.76 60.179 25.707 88.887 41.326 97.383 41.379 68.675"/>
    <path fill="#7dd3fc" d="M27.182,59.441l14.986,8.152,17.034-2.394.008-4.121-17.127,2.407c-.031.005-.062.006-.093.006-.099,0-.193-.029-.281-.071-.011-.005-.025-.003-.036-.009l-8.777-4.774-5.714.803Z"/>
    <path fill="#7dd3fc" d="M59.244,78.093c0-.024.015-.043.018-.067.002-.018-.01-.033-.007-.051.006-.03.032-.048.041-.076.026-.081.062-.151.116-.216.03-.037.058-.067.095-.097.024-.019.036-.048.063-.064.051-.03.109-.031.164-.046.03-.009.05-.036.082-.04l5.923-.832-6.203-3.375c-.214-.115-.347-.34-.347-.584l.011-6.105-16.494,2.318-.053,28.877,16.56-2.327.032-17.316Z"/>
    <polygon fill="#7dd3fc" points="41.328 61.712 41.379 34.347 40.254 32.396 25.762 24.513 25.71 53.217 41.328 61.712"/>
    <path fill="#7dd3fc" d="M38.985,30.195l-.521-.904c-.011-.018-.003-.04-.012-.059-.033-.071-.068-.141-.075-.221-.002-.028.013-.052.014-.08.002-.042.011-.078.021-.119.022-.091.061-.17.118-.245.016-.021.015-.051.034-.07.01-.01.026-.009.037-.019.014-.013.02-.033.036-.045l10.07-7.682-21.523,3.024,11.801,6.42Z"/>
    <path fill="#7dd3fc" d="M59.217,57.303l-6.547-3.562c-.108-.058-.197-.145-.258-.251l-9.709-16.846-.047,25.42,16.557-2.327.004-2.434Z"/>

    <polygon fill="#0c4a6e" points="53.469 52.664 59.22 55.793 59.24 45.154 55.503 38.671 46.291 33.661 40.79 30.668 53.469 52.664"/>
    <polygon fill="#0c4a6e" points="40.257 28.867 55.924 37.389 79.039 19.757 63.372 11.234 40.257 28.867"/>
    <path fill="#0c4a6e" d="M56.851,38.351l2.393,4.152v-.076c0-.024.015-.043.018-.067.002-.018-.01-.033-.007-.051.006-.03.032-.048.041-.076.026-.081.062-.151.116-.216.03-.037.058-.067.095-.097.024-.019.036-.048.063-.064.051-.03.11-.031.165-.047.029-.009.049-.035.081-.039l27.992-3.934c.14-.023.285.006.41.074l2.613,1.421-10.773-18.682-23.207,17.701Z"/>

    <polygon fill="#7dd3fc" points="76.189 87.706 60.57 79.21 60.517 107.918 76.136 116.414 76.189 87.706"/>
    <path fill="#7dd3fc" d="M76.89,82.522c-.031.005-.062.006-.093.006-.099,0-.193-.029-.281-.071-.011-.005-.025-.003-.036-.009l-8.783-4.779-5.706.802,14.986,8.152,25.784-3.624-6.009-3.269-19.863,2.792Z"/>
    <polygon fill="#7dd3fc" points="77.517 87.889 77.463 116.766 104.127 113.018 104.181 84.141 77.517 87.889"/>
    <polygon fill="#7dd3fc" points="76.136 80.749 76.189 52.041 60.57 43.545 60.517 72.253 76.136 80.749"/>
    <polygon fill="#7dd3fc" points="87.776 39.183 61.992 42.807 76.978 50.958 102.762 47.334 87.776 39.183"/>
    <polygon fill="#7dd3fc" points="77.517 52.224 77.463 81.101 104.127 77.353 104.181 48.476 77.517 52.224"/>
  </g>

  <!-- Dotnet2 variant -->
  <g transform="translate(128,120)">
    <polygon fill="#9370DB" points="41.379 68.675 25.76 60.179 25.707 88.887 41.326 97.383 41.379 68.675"/>
    <path fill="#9370DB" d="M27.182,59.441l14.986,8.152,17.034-2.394.008-4.121-17.127,2.407c-.031.005-.062.006-.093.006-.099,0-.193-.029-.281-.071-.011-.005-.025-.003-.036-.009l-8.777-4.774-5.714.803Z"/>
    <path fill="#9370DB" d="M59.244,78.093c0-.024.015-.043.018-.067.002-.018-.01-.033-.007-.051.006-.03.032-.048.041-.076.026-.081.062-.151.116-.216.03-.037.058-.067.095-.097.024-.019.036-.048.063-.064.051-.03.109-.031.164-.046.03-.009.05-.036.082-.04l5.923-.832-6.203-3.375c-.214-.115-.347-.34-.347-.584l.011-6.105-16.494,2.318-.053,28.877,16.56-2.327.032-17.316Z"/>
    <polygon fill="#9370DB" points="41.328 61.712 41.379 34.347 40.254 32.396 25.762 24.513 25.71 53.217 41.328 61.712"/>
    <path fill="#9370DB" d="M38.985,30.195l-.521-.904c-.011-.018-.003-.04-.012-.059-.033-.071-.068-.141-.075-.221-.002-.028.013-.052.014-.08.002-.042.011-.078.021-.119.022-.091.061-.17.118-.245.016-.021.015-.051.034-.07.01-.01.026-.009.037-.019.014-.013.02-.033.036-.045l10.07-7.682-21.523,3.024,11.801,6.42Z"/>
    <path fill="#9370DB" d="M59.217,57.303l-6.547-3.562c-.108-.058-.197-.145-.258-.251l-9.709-16.846-.047,25.42,16.557-2.327.004-2.434Z"/>

    <polygon fill="#8B3BFF" points="53.469 52.664 59.22 55.793 59.24 45.154 55.503 38.671 46.291 33.661 40.79 30.668 53.469 52.664"/>
    <polygon fill="#8B3BFF" points="40.257 28.867 55.924 37.389 79.039 19.757 63.372 11.234 40.257 28.867"/>
    <path fill="#8B3BFF" d="M56.851,38.351l2.393,4.152v-.076c0-.024.015-.043.018-.067.002-.018-.01-.033-.007-.051.006-.03.032-.048.041-.076.026-.081.062-.151.116-.216.03-.037.058-.067.095-.097.024-.019.036-.048.063-.064.051-.03.11-.031.165-.047.029-.009.049-.035.081-.039l27.992-3.934c.14-.023.285.006.41.074l2.613,1.421-10.773-18.682-23.207,17.701Z"/>

    <polygon fill="#9370DB" points="76.189 87.706 60.57 79.21 60.517 107.918 76.136 116.414 76.189 87.706"/>
    <path fill="#9370DB" d="M76.89,82.522c-.031.005-.062.006-.093.006-.099,0-.193-.029-.281-.071-.011-.005-.025-.003-.036-.009l-8.783-4.779-5.706.802,14.986,8.152,25.784-3.624-6.009-3.269-19.863,2.792Z"/>
    <polygon fill="#9370DB" points="77.517 87.889 77.463 116.766 104.127 113.018 104.181 84.141 77.517 87.889"/>
    <polygon fill="#9370DB" points="76.136 80.749 76.189 52.041 60.57 43.545 60.517 72.253 76.136 80.749"/>
    <polygon fill="#9370DB" points="87.776 39.183 61.992 42.807 76.978 50.958 102.762 47.334 87.776 39.183"/>
    <polygon fill="#9370DB" points="77.517 52.224 77.463 81.101 104.127 77.353 104.181 48.476 77.517 52.224"/>
  </g>

  <!-- Dotnet3 variant -->
  <g transform="translate(256,120)">
    <polygon fill="#200972" points="41.379 68.675 25.76 60.179 25.707 88.887 41.326 97.383 41.379 68.675"/>
    <path fill="#200972" d="M27.182,59.441l14.986,8.152,17.034-2.394.008-4.121-17.127,2.407c-.031.005-.062.006-.093.006-.099,0-.193-.029-.281-.071-.011-.005-.025-.003-.036-.009l-8.777-4.774-5.714.803Z"/>
    <path fill="#200972" d="M59.244,78.093c0-.024.015-.043.018-.067.002-.018-.01-.033-.007-.051.006-.03.032-.048.041-.076.026-.081.062-.151.116-.216.03-.037.058-.067.095-.097.024-.019.036-.048.063-.064.051-.03.109-.031.164-.046.03-.009.05-.036.082-.04l5.923-.832-6.203-3.375c-.214-.115-.347-.34-.347-.584l.011-6.105-16.494,2.318-.053,28.877,16.56-2.327.032-17.316Z"/>
    <polygon fill="#200972" points="41.328 61.712 41.379 34.347 40.254 32.396 25.762 24.513 25.71 53.217 41.328 61.712"/>
    <path fill="#200972" d="M38.985,30.195l-.521-.904c-.011-.018-.003-.04-.012-.059-.033-.071-.068-.141-.075-.221-.002-.028.013-.052.014-.08.002-.042.011-.078.021-.119.022-.091.061-.17.118-.245.016-.021.015-.051.034-.07.01-.01.026-.009.037-.019.014-.013.02-.033.036-.045l10.07-7.682-21.523,3.024,11.801,6.42Z"/>
    <path fill="#200972" d="M59.217,57.303l-6.547-3.562c-.108-.058-.197-.145-.258-.251l-9.709-16.846-.047,25.42,16.557-2.327.004-2.434Z"/>

    <polygon fill="#D03AF5" points="53.469 52.664 59.22 55.793 59.24 45.154 55.503 38.671 46.291 33.661 40.79 30.668 53.469 52.664"/>
    <polygon fill="#D03AF5" points="40.257 28.867 55.924 37.389 79.039 19.757 63.372 11.234 40.257 28.867"/>
    <path fill="#D03AF5" d="M56.851,38.351l2.393,4.152v-.076c0-.024.015-.043.018-.067.002-.018-.01-.033-.007-.051.006-.03.032-.048.041-.076.026-.081.062-.151.116-.216.03-.037.058-.067.095-.097.024-.019.036-.048.063-.064.051-.03.11-.031.165-.047.029-.009.049-.035.081-.039l27.992-3.934c.14-.023.285.006.41.074l2.613,1.421-10.773-18.682-23.207,17.701Z"/>

    <polygon fill="#200972" points="76.189 87.706 60.57 79.21 60.517 107.918 76.136 116.414 76.189 87.706"/>
    <path fill="#200972" d="M76.89,82.522c-.031.005-.062.006-.093.006-.099,0-.193-.029-.281-.071-.011-.005-.025-.003-.036-.009l-8.783-4.779-5.706.802,14.986,8.152,25.784-3.624-6.009-3.269-19.863,2.792Z"/>
    <polygon fill="#200972" points="77.517 87.889 77.463 116.766 104.127 113.018 104.181 84.141 77.517 87.889"/>
    <polygon fill="#200972" points="76.136 80.749 76.189 52.041 60.57 43.545 60.517 72.253 76.136 80.749"/>
    <polygon fill="#200972" points="87.776 39.183 61.992 42.807 76.978 50.958 102.762 47.334 87.776 39.183"/>
    <polygon fill="#200972" points="77.517 52.224 77.463 81.101 104.127 77.353 104.181 48.476 77.517 52.224"/>
  </g>

  </svg>