<?xml version="1.0" encoding="UTF-8"?>
<!-- https://boxy-svg.com/app -->
<svg id="Ebene_1" xmlns="http://www.w3.org/2000/svg" width="722.043" height="893.277" viewBox="0 0 722.043 193.277">

  <g transform="translate(0,-360)">
    <defs>
      <style>.cls-10{fill:#b1cfe5;}.cls-10,.cls-2{stroke-width:0px;}.cls-2{fill#e40b30;}</style>
    </defs>
    <path class="cls-10"
          d="M38.985,66.219h9.648v30.306h.227c3.179-6.47,10.557-9.309,18.729-9.309,18.047,0,27.014,14.302,27.014,30.873,0,16.685-8.853,30.534-26.787,30.534-5.902,0-14.755-2.271-18.956-9.195h-.227v7.832h-9.648v-81.042ZM66.226,95.729c-13.053,0-17.934,11.237-17.934,22.134,0,11.464,5.222,22.248,18.502,22.248,13.167,0,17.593-11.237,17.593-22.701,0-11.011-5.676-21.68-18.161-21.68Z"/>
    <path class="cls-10" d="M107.986,66.219h10.783v81.042h-10.783v-81.042Z"/>
    <path class="cls-10" d="M155.313,75.299h-27.015v-9.08h64.811v9.08h-27.014v71.962h-10.783v-71.962Z"/>
    <path class="cls-2"
          d="M202.07,66.219h27.808c24.971,0,38.932,12.598,38.932,38.591,0,27.129-11.918,42.451-38.932,42.451h-27.808v-81.042ZM212.852,138.18h17.934c7.378,0,27.241-2.043,27.241-31.895,0-19.295-7.151-30.986-27.015-30.986h-18.161v62.881Z"/>
    <path class="cls-2"
          d="M330.433,128.647c-2.611,13.052-11.805,19.977-25.084,19.977-18.728,0-27.582-13.053-28.149-30.873,0-17.708,11.577-30.534,27.582-30.534,20.772,0,27.128,19.41,26.56,33.597h-43.926c-.341,10.217,5.448,19.297,18.274,19.297,8.059,0,13.507-3.746,15.209-11.464h9.534ZM321.126,112.302c-.568-9.195-7.264-16.573-16.913-16.573-9.988,0-16.231,7.493-16.798,16.573h33.711Z"/>
    <path class="cls-2"
          d="M367.768,147.261h-10.329l-21.793-58.682h10.783l16.458,48.92h.227l16.004-48.92h10.102l-21.452,58.682Z"/>
    <path class="cls-10"
          d="M399.657,66.219h10.783v40.407l41.089-40.407h13.961l-34.166,32.689,35.527,48.353h-13.621l-29.284-40.976-13.507,12.6v28.376h-10.783v-81.042Z"/>
    <path class="cls-10" d="M483.982,78.023h-9.649v-11.805h9.649v11.805ZM474.333,88.579h9.649v58.682h-9.649v-58.682Z"/>
    <path class="cls-10"
          d="M512.353,88.579h11.691v8.513h-11.691v36.434c0,4.54,1.249,5.222,7.264,5.222h4.427v8.513h-7.378c-9.988,0-13.961-2.043-13.961-12.827v-37.342h-9.988v-8.513h9.988v-17.593h9.648v17.593Z"/>
  </g>

  <g transform="translate(0,-240)">
  <defs>
    <style>.cls-1{fill:#2a4365;}.cls-1,.cls-2{stroke-width:0px;}.cls-2{fill:#7f1d1d;}</style>
  </defs>
  <path class="cls-1"
        d="M38.985,66.219h9.648v30.306h.227c3.179-6.47,10.557-9.309,18.729-9.309,18.047,0,27.014,14.302,27.014,30.873,0,16.685-8.853,30.534-26.787,30.534-5.902,0-14.755-2.271-18.956-9.195h-.227v7.832h-9.648v-81.042ZM66.226,95.729c-13.053,0-17.934,11.237-17.934,22.134,0,11.464,5.222,22.248,18.502,22.248,13.167,0,17.593-11.237,17.593-22.701,0-11.011-5.676-21.68-18.161-21.68Z"/>
  <path class="cls-1" d="M107.986,66.219h10.783v81.042h-10.783v-81.042Z"/>
  <path class="cls-1" d="M155.313,75.299h-27.015v-9.08h64.811v9.08h-27.014v71.962h-10.783v-71.962Z"/>
  <path class="cls-2"
        d="M202.07,66.219h27.808c24.971,0,38.932,12.598,38.932,38.591,0,27.129-11.918,42.451-38.932,42.451h-27.808v-81.042ZM212.852,138.18h17.934c7.378,0,27.241-2.043,27.241-31.895,0-19.295-7.151-30.986-27.015-30.986h-18.161v62.881Z"/>
  <path class="cls-2"
        d="M330.433,128.647c-2.611,13.052-11.805,19.977-25.084,19.977-18.728,0-27.582-13.053-28.149-30.873,0-17.708,11.577-30.534,27.582-30.534,20.772,0,27.128,19.41,26.56,33.597h-43.926c-.341,10.217,5.448,19.297,18.274,19.297,8.059,0,13.507-3.746,15.209-11.464h9.534ZM321.126,112.302c-.568-9.195-7.264-16.573-16.913-16.573-9.988,0-16.231,7.493-16.798,16.573h33.711Z"/>
  <path class="cls-2"
        d="M367.768,147.261h-10.329l-21.793-58.682h10.783l16.458,48.92h.227l16.004-48.92h10.102l-21.452,58.682Z"/>
  <path class="cls-1"
        d="M399.657,66.219h10.783v40.407l41.089-40.407h13.961l-34.166,32.689,35.527,48.353h-13.621l-29.284-40.976-13.507,12.6v28.376h-10.783v-81.042Z"/>
  <path class="cls-1" d="M483.982,78.023h-9.649v-11.805h9.649v11.805ZM474.333,88.579h9.649v58.682h-9.649v-58.682Z"/>
  <path class="cls-1"
        d="M512.353,88.579h11.691v8.513h-11.691v36.434c0,4.54,1.249,5.222,7.264,5.222h4.427v8.513h-7.378c-9.988,0-13.961-2.043-13.961-12.827v-37.342h-9.988v-8.513h9.988v-17.593h9.648v17.593Z"/>
  </g>

  <g transform="translate(0,-120)">
    <defs>
      <style>.cls-3{fill:#4c1d95;}.cls-3,.cls-2{stroke-width:0px;}.cls-4{fill:#805ad5;}</style>
    </defs>
    <path class="cls-3"
          d="M38.985,66.219h9.648v30.306h.227c3.179-6.47,10.557-9.309,18.729-9.309,18.047,0,27.014,14.302,27.014,30.873,0,16.685-8.853,30.534-26.787,30.534-5.902,0-14.755-2.271-18.956-9.195h-.227v7.832h-9.648v-81.042ZM66.226,95.729c-13.053,0-17.934,11.237-17.934,22.134,0,11.464,5.222,22.248,18.502,22.248,13.167,0,17.593-11.237,17.593-22.701,0-11.011-5.676-21.68-18.161-21.68Z"/>
    <path class="cls-3" d="M107.986,66.219h10.783v81.042h-10.783v-81.042Z"/>
    <path class="cls-3" d="M155.313,75.299h-27.015v-9.08h64.811v9.08h-27.014v71.962h-10.783v-71.962Z"/>
    <path class="cls-4"
          d="M202.07,66.219h27.808c24.971,0,38.932,12.598,38.932,38.591,0,27.129-11.918,42.451-38.932,42.451h-27.808v-81.042ZM212.852,138.18h17.934c7.378,0,27.241-2.043,27.241-31.895,0-19.295-7.151-30.986-27.015-30.986h-18.161v62.881Z"/>
    <path class="cls-4"
          d="M330.433,128.647c-2.611,13.052-11.805,19.977-25.084,19.977-18.728,0-27.582-13.053-28.149-30.873,0-17.708,11.577-30.534,27.582-30.534,20.772,0,27.128,19.41,26.56,33.597h-43.926c-.341,10.217,5.448,19.297,18.274,19.297,8.059,0,13.507-3.746,15.209-11.464h9.534ZM321.126,112.302c-.568-9.195-7.264-16.573-16.913-16.573-9.988,0-16.231,7.493-16.798,16.573h33.711Z"/>
    <path class="cls-4"
          d="M367.768,147.261h-10.329l-21.793-58.682h10.783l16.458,48.92h.227l16.004-48.92h10.102l-21.452,58.682Z"/>
    <path class="cls-3"
          d="M399.657,66.219h10.783v40.407l41.089-40.407h13.961l-34.166,32.689,35.527,48.353h-13.621l-29.284-40.976-13.507,12.6v28.376h-10.783v-81.042Z"/>
    <path class="cls-3" d="M483.982,78.023h-9.649v-11.805h9.649v11.805ZM474.333,88.579h9.649v58.682h-9.649v-58.682Z"/>
    <path class="cls-3"
          d="M512.353,88.579h11.691v8.513h-11.691v36.434c0,4.54,1.249,5.222,7.264,5.222h4.427v8.513h-7.378c-9.988,0-13.961-2.043-13.961-12.827v-37.342h-9.988v-8.513h9.988v-17.593h9.648v17.593Z"/>
  </g>

  <g transform="translate(0,0)">
    <defs>
      <style>.cls-5{fill:#004d1a;}.cls-5,.cls-2{stroke-width:0px;}.cls-6{fill:#00ff41;}</style>
    </defs>
    <path class="cls-5"
          d="M38.985,66.219h9.648v30.306h.227c3.179-6.47,10.557-9.309,18.729-9.309,18.047,0,27.014,14.302,27.014,30.873,0,16.685-8.853,30.534-26.787,30.534-5.902,0-14.755-2.271-18.956-9.195h-.227v7.832h-9.648v-81.042ZM66.226,95.729c-13.053,0-17.934,11.237-17.934,22.134,0,11.464,5.222,22.248,18.502,22.248,13.167,0,17.593-11.237,17.593-22.701,0-11.011-5.676-21.68-18.161-21.68Z"/>
    <path class="cls-5" d="M107.986,66.219h10.783v81.042h-10.783v-81.042Z"/>
    <path class="cls-5" d="M155.313,75.299h-27.015v-9.08h64.811v9.08h-27.014v71.962h-10.783v-71.962Z"/>
    <path class="cls-6"
          d="M202.07,66.219h27.808c24.971,0,38.932,12.598,38.932,38.591,0,27.129-11.918,42.451-38.932,42.451h-27.808v-81.042ZM212.852,138.18h17.934c7.378,0,27.241-2.043,27.241-31.895,0-19.295-7.151-30.986-27.015-30.986h-18.161v62.881Z"/>
    <path class="cls-6"
          d="M330.433,128.647c-2.611,13.052-11.805,19.977-25.084,19.977-18.728,0-27.582-13.053-28.149-30.873,0-17.708,11.577-30.534,27.582-30.534,20.772,0,27.128,19.41,26.56,33.597h-43.926c-.341,10.217,5.448,19.297,18.274,19.297,8.059,0,13.507-3.746,15.209-11.464h9.534ZM321.126,112.302c-.568-9.195-7.264-16.573-16.913-16.573-9.988,0-16.231,7.493-16.798,16.573h33.711Z"/>
    <path class="cls-6"
          d="M367.768,147.261h-10.329l-21.793-58.682h10.783l16.458,48.92h.227l16.004-48.92h10.102l-21.452,58.682Z"/>
    <path class="cls-5"
          d="M399.657,66.219h10.783v40.407l41.089-40.407h13.961l-34.166,32.689,35.527,48.353h-13.621l-29.284-40.976-13.507,12.6v28.376h-10.783v-81.042Z"/>
    <path class="cls-5" d="M483.982,78.023h-9.649v-11.805h9.649v11.805ZM474.333,88.579h9.649v58.682h-9.649v-58.682Z"/>
    <path class="cls-5"
          d="M512.353,88.579h11.691v8.513h-11.691v36.434c0,4.54,1.249,5.222,7.264,5.222h4.427v8.513h-7.378c-9.988,0-13.961-2.043-13.961-12.827v-37.342h-9.988v-8.513h9.988v-17.593h9.648v17.593Z"/>
  </g>

  <g transform="translate(0,120)">
    <defs>
      <style>.ice-1{fill:#7dd3fc;}.ice-1,.ice-2{stroke-width:0px;}.ice-2{fill:#0c4a6e;}</style>
    </defs>
    <path class="ice-1"
          d="M38.985,66.219h9.648v30.306h.227c3.179-6.47,10.557-9.309,18.729-9.309,18.047,0,27.014,14.302,27.014,30.873,0,16.685-8.853,30.534-26.787,30.534-5.902,0-14.755-2.271-18.956-9.195h-.227v7.832h-9.648v-81.042ZM66.226,95.729c-13.053,0-17.934,11.237-17.934,22.134,0,11.464,5.222,22.248,18.502,22.248,13.167,0,17.593-11.237,17.593-22.701,0-11.011-5.676-21.68-18.161-21.68Z" transform="scale(0.85, 1)"/>
    <path class="ice-1" d="M107.986,66.219h10.783v81.042h-10.783v-81.042Z" transform="scale(0.85, 1)"/>
    <path class="ice-1" d="M155.313,75.299h-27.015v-9.08h64.811v9.08h-27.014v71.962h-10.783v-71.962Z" transform="scale(0.85, 1)"/>
    <path class="ice-2"
          d="M202.07,66.219h27.808c24.971,0,38.932,12.598,38.932,38.591,0,27.129-11.918,42.451-38.932,42.451h-27.808v-81.042ZM212.852,138.18h17.934c7.378,0,27.241-2.043,27.241-31.895,0-19.295-7.151-30.986-27.015-30.986h-18.161v62.881Z" transform="scale(0.85, 1)"/>
    <path class="ice-2"
          d="M330.433,128.647c-2.611,13.052-11.805,19.977-25.084,19.977-18.728,0-27.582-13.053-28.149-30.873,0-17.708,11.577-30.534,27.582-30.534,20.772,0,27.128,19.41,26.56,33.597h-43.926c-.341,10.217,5.448,19.297,18.274,19.297,8.059,0,13.507-3.746,15.209-11.464h9.534ZM321.126,112.302c-.568-9.195-7.264-16.573-16.913-16.573-9.988,0-16.231,7.493-16.798,16.573h33.711Z" transform="scale(0.85, 1)"/>
    <path class="ice-2"
          d="M367.768,147.261h-10.329l-21.793-58.682h10.783l16.458,48.92h.227l16.004-48.92h10.102l-21.452,58.682Z" transform="scale(0.85, 1)"/>
    <path class="ice-1"
          d="M399.657,66.219h10.783v40.407l41.089-40.407h13.961l-34.166,32.689,35.527,48.353h-13.621l-29.284-40.976-13.507,12.6v28.376h-10.783v-81.042Z" transform="scale(0.85, 1)"/>
    <path class="ice-1" d="M483.982,78.023h-9.649v-11.805h9.649v11.805ZM474.333,88.579h9.649v58.682h-9.649v-58.682Z" transform="scale(0.85, 1)"/>
    <path class="ice-1"
          d="M512.353,88.579h11.691v8.513h-11.691v36.434c0,4.54,1.249,5.222,7.264,5.222h4.427v8.513h-7.378c-9.988,0-13.961-2.043-13.961-12.827v-37.342h-9.988v-8.513h9.988v-17.593h9.648v17.593Z" transform="scale(0.85, 1)"/>
  </g>

  <g transform="translate(0,240)">
    <defs>
      <style>.dot-1{fill:#9370DB;}.dot-1,.dot-2{stroke-width:0px;}.dot-2{fill:#8B3BFF;}</style>
    </defs>
    <path class="dot-1"
          d="M38.985,66.219h9.648v30.306h.227c3.179-6.47,10.557-9.309,18.729-9.309,18.047,0,27.014,14.302,27.014,30.873,0,16.685-8.853,30.534-26.787,30.534-5.902,0-14.755-2.271-18.956-9.195h-.227v7.832h-9.648v-81.042ZM66.226,95.729c-13.053,0-17.934,11.237-17.934,22.134,0,11.464,5.222,22.248,18.502,22.248,13.167,0,17.593-11.237,17.593-22.701,0-11.011-5.676-21.68-18.161-21.68Z" transform="scale(0.85, 1)"/>
    <path class="dot-1" d="M107.986,66.219h10.783v81.042h-10.783v-81.042Z" transform="scale(0.85, 1)"/>
    <path class="dot-1" d="M155.313,75.299h-27.015v-9.08h64.811v9.08h-27.014v71.962h-10.783v-71.962Z" transform="scale(0.85, 1)"/>
    <path class="dot-2"
          d="M202.07,66.219h27.808c24.971,0,38.932,12.598,38.932,38.591,0,27.129-11.918,42.451-38.932,42.451h-27.808v-81.042ZM212.852,138.18h17.934c7.378,0,27.241-2.043,27.241-31.895,0-19.295-7.151-30.986-27.015-30.986h-18.161v62.881Z" transform="scale(0.85, 1)"/>
    <path class="dot-2"
          d="M330.433,128.647c-2.611,13.052-11.805,19.977-25.084,19.977-18.728,0-27.582-13.053-28.149-30.873,0-17.708,11.577-30.534,27.582-30.534,20.772,0,27.128,19.41,26.56,33.597h-43.926c-.341,10.217,5.448,19.297,18.274,19.297,8.059,0,13.507-3.746,15.209-11.464h9.534ZM321.126,112.302c-.568-9.195-7.264-16.573-16.913-16.573-9.988,0-16.231,7.493-16.798,16.573h33.711Z" transform="scale(0.85, 1)"/>
    <path class="dot-2"
          d="M367.768,147.261h-10.329l-21.793-58.682h10.783l16.458,48.92h.227l16.004-48.92h10.102l-21.452,58.682Z" transform="scale(0.85, 1)"/>
    <path class="dot-1"
          d="M399.657,66.219h10.783v40.407l41.089-40.407h13.961l-34.166,32.689,35.527,48.353h-13.621l-29.284-40.976-13.507,12.6v28.376h-10.783v-81.042Z" transform="scale(0.85, 1)"/>
    <path class="dot-1" d="M483.982,78.023h-9.649v-11.805h9.649v11.805ZM474.333,88.579h9.649v58.682h-9.649v-58.682Z" transform="scale(0.85, 1)"/>
    <path class="dot-1"
          d="M512.353,88.579h11.691v8.513h-11.691v36.434c0,4.54,1.249,5.222,7.264,5.222h4.427v8.513h-7.378c-9.988,0-13.961-2.043-13.961-12.827v-37.342h-9.988v-8.513h9.988v-17.593h9.648v17.593Z" transform="scale(0.85, 1)"/>
  </g>

  <g transform="translate(0,360)">
    <defs>
      <style>.dot-3{fill:#200972;}.dot-3,.dot-2{stroke-width:0px;}.dot-4{fill:#D03AF5;}</style>
    </defs>
    <path class="dot-3"
          d="M38.985,66.219h9.648v30.306h.227c3.179-6.47,10.557-9.309,18.729-9.309,18.047,0,27.014,14.302,27.014,30.873,0,16.685-8.853,30.534-26.787,30.534-5.902,0-14.755-2.271-18.956-9.195h-.227v7.832h-9.648v-81.042ZM66.226,95.729c-13.053,0-17.934,11.237-17.934,22.134,0,11.464,5.222,22.248,18.502,22.248,13.167,0,17.593-11.237,17.593-22.701,0-11.011-5.676-21.68-18.161-21.68Z" transform="scale(0.85, 1)"/>
    <path class="dot-3" d="M107.986,66.219h10.783v81.042h-10.783v-81.042Z" transform="scale(0.85, 1)"/>
    <path class="dot-3" d="M155.313,75.299h-27.015v-9.08h64.811v9.08h-27.014v71.962h-10.783v-71.962Z" transform="scale(0.85, 1)"/>
    <path class="dot-4"
          d="M202.07,66.219h27.808c24.971,0,38.932,12.598,38.932,38.591,0,27.129-11.918,42.451-38.932,42.451h-27.808v-81.042ZM212.852,138.18h17.934c7.378,0,27.241-2.043,27.241-31.895,0-19.295-7.151-30.986-27.015-30.986h-18.161v62.881Z" transform="scale(0.85, 1)"/>
    <path class="dot-4"
          d="M330.433,128.647c-2.611,13.052-11.805,19.977-25.084,19.977-18.728,0-27.582-13.053-28.149-30.873,0-17.708,11.577-30.534,27.582-30.534,20.772,0,27.128,19.41,26.56,33.597h-43.926c-.341,10.217,5.448,19.297,18.274,19.297,8.059,0,13.507-3.746,15.209-11.464h9.534ZM321.126,112.302c-.568-9.195-7.264-16.573-16.913-16.573-9.988,0-16.231,7.493-16.798,16.573h33.711Z" transform="scale(0.85, 1)"/>
    <path class="dot-4"
          d="M367.768,147.261h-10.329l-21.793-58.682h10.783l16.458,48.92h.227l16.004-48.92h10.102l-21.452,58.682Z" transform="scale(0.85, 1)"/>
    <path class="dot-3"
          d="M399.657,66.219h10.783v40.407l41.089-40.407h13.961l-34.166,32.689,35.527,48.353h-13.621l-29.284-40.976-13.507,12.6v28.376h-10.783v-81.042Z" transform="scale(0.85, 1)"/>
    <path class="dot-3" d="M483.982,78.023h-9.649v-11.805h9.649v11.805ZM474.333,88.579h9.649v58.682h-9.649v-58.682Z" transform="scale(0.85, 1)"/>
    <path class="dot-3"
          d="M512.353,88.579h11.691v8.513h-11.691v36.434c0,4.54,1.249,5.222,7.264,5.222h4.427v8.513h-7.378c-9.988,0-13.961-2.043-13.961-12.827v-37.342h-9.988v-8.513h9.988v-17.593h9.648v17.593Z" transform="scale(0.85, 1)"/>
  </g>

</svg>